<?xml version="1.0" encoding="UTF-8"?>
<svg version="1.1" xmlns="http://www.w3.org/2000/svg" width="605" height="605">
<path d="M0 0 C1.00797638 -0.00058914 1.00797638 -0.00058914 2.03631592 -0.00119019 C13.06107414 0.00647564 23.91185308 0.65636137 34.86230469 1.94824219 C37.9858688 2.29784164 41.11520891 2.52660109 44.25 2.75 C58.62974684 3.81724684 58.62974684 3.81724684 60 5.1875 C61.33038449 5.5324145 62.66433619 5.86363108 64 6.1875 C65.44005241 6.70123404 66.87747691 7.2223805 68.3125 7.75 C72.4190464 9.15057708 75.68721867 9.46278391 80 9.1875 C80 9.8475 80 10.5075 80 11.1875 C81.2375 11.27 82.475 11.3525 83.75 11.4375 C89.79137746 12.08306984 95.317419 14.1202328 101 16.1875 C101 16.8475 101 17.5075 101 18.1875 C102.093125 18.31125 103.18625 18.435 104.3125 18.5625 C108 19.1875 108 19.1875 111 21.1875 C113.3078491 22.34142455 115.47230331 22.72187166 118 23.1875 C118 23.8475 118 24.5075 118 25.1875 C118.77601563 25.24808594 119.55203125 25.30867188 120.3515625 25.37109375 C125.47653627 26.51790266 129.74616069 28.81263537 134.375 31.25 C135.36999512 31.77150635 136.36499023 32.2930127 137.39013672 32.83032227 C145.23170894 37.03899612 152.71854115 41.69512912 160.125 46.625 C161.13739746 47.29861572 162.14979492 47.97223145 163.19287109 48.66625977 C167.92708093 51.88251788 172.04226661 55.07295076 176 59.1875 C177.3115003 59.89615307 178.64375844 60.56876658 180 61.1875 C181.26041438 62.14781572 182.49066029 63.14902737 183.6875 64.1875 C184.28949219 64.703125 184.89148438 65.21875 185.51171875 65.75 C187 67.1875 187 67.1875 188 69.1875 C188.93199219 69.64576172 188.93199219 69.64576172 189.8828125 70.11328125 C192.18126065 71.27946804 193.26413205 72.38644267 194.875 74.375 C195.38417969 74.99246094 195.89335937 75.60992187 196.41796875 76.24609375 C196.94003906 76.88675781 197.46210938 77.52742188 198 78.1875 C199.05855152 79.4408455 200.120934 80.69096753 201.1875 81.9375 C201.65542969 82.48921875 202.12335938 83.0409375 202.60546875 83.609375 C204.73798441 86.02264203 206.51758839 87.91378559 209.34765625 89.51953125 C212.56542895 91.54307903 214.93286984 94.06070008 217.4375 96.875 C218.15655518 97.67139893 218.15655518 97.67139893 218.89013672 98.48388672 C227.42342488 108.03434977 227.42342488 108.03434977 230 113.1875 C229.67 113.8475 229.34 114.5075 229 115.1875 C229.90492188 115.31705078 229.90492188 115.31705078 230.828125 115.44921875 C233.63919001 116.40477862 234.21207682 117.48956658 235.75 120 C236.26175781 120.8146875 236.77351562 121.629375 237.30078125 122.46875 C237.86152344 123.3659375 238.42226563 124.263125 239 125.1875 C240.30854909 127.12767055 241.62123074 129.06505873 242.9375 131 C249.19396843 140.42625415 254.55691972 150.02786729 259.24804688 160.31323242 C260.9754115 164.09162175 262.83499991 167.6343528 265 171.1875 C265.67939174 173.18321323 266.34561559 175.18344773 267 177.1875 C267.495 178.156875 267.99 179.12625 268.5 180.125 C270.13876721 183.47081638 271.06478617 186.59052373 272 190.1875 C271.67 190.5175 271.34 190.8475 271 191.1875 C271.45375 191.5175 271.9075 191.8475 272.375 192.1875 C274.87353315 195.26261773 275.25008383 198.3129331 276 202.1875 C275.67 202.5175 275.34 202.8475 275 203.1875 C275.66 203.5175 276.32 203.8475 277 204.1875 C277.6875 206.6875 277.6875 206.6875 278 209.1875 C277.67 209.5175 277.34 209.8475 277 210.1875 C277.66 210.5175 278.32 210.8475 279 211.1875 C279.1546875 212.3940625 279.1546875 212.3940625 279.3125 213.625 C279.539375 214.470625 279.76625 215.31625 280 216.1875 C282.18137797 217.21200239 282.18137797 217.21200239 285 218.1875 C289.75136523 221.2608037 293.71286227 224.53072155 297 229.1875 C296.67 229.8475 296.34 230.5075 296 231.1875 C296.61359375 231.26355469 297.2271875 231.33960938 297.859375 231.41796875 C300 232.1875 300 232.1875 301.265625 234.11328125 C301.59046875 234.90089844 301.9153125 235.68851563 302.25 236.5 C302.58515625 237.27988281 302.9203125 238.05976563 303.265625 238.86328125 C304 241.1875 304 241.1875 304 245.1875 C304.06776707 247.09644623 304.1383828 249.00529224 304.2109375 250.9140625 C304.26676234 253.21351434 304.32140444 255.51299512 304.375 257.8125 C304.45041016 259.51986328 304.45041016 259.51986328 304.52734375 261.26171875 C304.6678695 269.42158064 303.13449773 274.77413788 298 281.1875 C295.125 283.8125 295.125 283.8125 293 285.1875 C293.45890625 285.75597656 293.9178125 286.32445312 294.390625 286.91015625 C295.00421875 287.68230469 295.6178125 288.45445312 296.25 289.25 C296.85328125 290.00410156 297.4565625 290.75820313 298.078125 291.53515625 C298.71234375 292.41042969 299.3465625 293.28570312 300 294.1875 C300.73089844 295.15300781 301.46179688 296.11851562 302.21484375 297.11328125 C305.29804958 302.65540743 304.45453179 309.1704142 304.3125 315.3125 C304.29799805 317.20548828 304.29799805 317.20548828 304.28320312 319.13671875 C304.13806131 331.03834763 302.06240314 339.15620818 293.625 348 C284.91365521 356.1875 284.91365521 356.1875 280 356.1875 C279.87625 356.991875 279.7525 357.79625 279.625 358.625 C279.41875 359.470625 279.2125 360.31625 279 361.1875 C278.01 361.6825 278.01 361.6825 277 362.1875 C277 363.5075 277 364.8275 277 366.1875 C277 366.8475 277 367.5075 277 368.1875 C276.01 368.6825 276.01 368.6825 275 369.1875 C275 370.5075 275 371.8275 275 373.1875 C274.125 376.875 274.125 376.875 273 380.1875 C272.01 380.6825 272.01 380.6825 271 381.1875 C271 382.1775 271 383.1675 271 384.1875 C269.89356116 388.88986509 268.29719234 392.85323446 266 397.09765625 C264.91048024 399.24650501 264.91048024 399.24650501 264.15234375 401.90234375 C262.68854561 406.07540897 260.67169658 409.80984943 258.5625 413.6875 C257.77151632 415.15591668 256.98114023 416.62466083 256.19140625 418.09375 C255.8142749 418.79322754 255.43714355 419.49270508 255.04858398 420.21337891 C254.13259391 421.93787151 253.25438759 423.6823268 252.3828125 425.4296875 C248.02337164 434.12393962 242.45266598 442.15495694 237 450.1875 C236.49984375 450.95191406 235.9996875 451.71632813 235.484375 452.50390625 C234.1875 454.4375 234.1875 454.4375 232 457.1875 C231.01 457.1875 230.02 457.1875 229 457.1875 C229.33 458.1775 229.66 459.1675 230 460.1875 C228.77734375 461.94921875 228.77734375 461.94921875 226.9375 463.875 C224.46009848 466.55313959 222.18237684 469.21850122 220.0625 472.1875 C215.87640999 477.86621728 211.35658594 483.03423296 205 486.1875 C203.11561906 487.75799093 203.11561906 487.75799093 201.375 489.5625 C200.78460938 490.14773438 200.19421875 490.73296875 199.5859375 491.3359375 C197.9808168 493.20989616 197.08538052 494.98622626 196 497.1875 C194.59765625 498.85546875 194.59765625 498.85546875 193.0625 500.375 C192.55847656 500.88417969 192.05445313 501.39335938 191.53515625 501.91796875 C190 503.1875 190 503.1875 187 504.1875 C185.65080468 505.84135233 184.31866272 507.509202 183 509.1875 C180.58175203 511.23934676 179.03873322 512.17458893 176 513.1875 C174.87035267 514.35331307 173.74135792 515.51976579 172.61572266 516.68945312 C169.16146539 519.89213106 165.11215184 522.35466671 161.1875 524.9375 C160.25623291 525.55367187 159.32496582 526.16984375 158.36547852 526.8046875 C130.31629692 545.18215181 130.31629692 545.18215181 119.796875 547.71875 C117.76271158 548.08764209 117.76271158 548.08764209 116 550.1875 C113.375 550.3125 113.375 550.3125 111 550.1875 C111 550.8475 111 551.5075 111 552.1875 C107.49223216 553.79105101 104.85645121 554.40786864 101 554.1875 C101 554.8475 101 555.5075 101 556.1875 C98.62854106 557.03229453 96.25365876 557.86343283 93.875 558.6875 C93.20984375 558.92597656 92.5446875 559.16445313 91.859375 559.41015625 C87.76645945 560.81458806 84.38868208 561.46093814 80 561.1875 C80 561.8475 80 562.5075 80 563.1875 C79.030625 563.125625 78.06125 563.06375 77.0625 563 C73.09193497 562.98385949 69.81300673 564.07330392 66.11328125 565.43359375 C64 566.1875 64 566.1875 62.04296875 566.66015625 C59.89226651 567.15842227 59.89226651 567.15842227 57.5546875 568.25 C54.81306989 569.25609821 53.02187632 569.33189259 50.125 569.1875 C44.35386434 569.07114646 38.8625448 569.78406484 33.1640625 570.65234375 C22.486351 572.13023239 11.76463216 572.38106496 1 572.375 C-0.00797638 572.37558914 -0.00797638 572.37558914 -1.03631592 572.37619019 C-12.06107414 572.36852436 -22.91185308 571.71863863 -33.86230469 570.42675781 C-36.9858688 570.07715836 -40.11520891 569.84839891 -43.25 569.625 C-57.62974684 568.55775316 -57.62974684 568.55775316 -59 567.1875 C-60.33038449 566.8425855 -61.66433619 566.51136892 -63 566.1875 C-64.44005241 565.67376596 -65.87747691 565.1526195 -67.3125 564.625 C-71.4190464 563.22442292 -74.68721867 562.91221609 -79 563.1875 C-79 562.5275 -79 561.8675 -79 561.1875 C-80.2375 561.105 -81.475 561.0225 -82.75 560.9375 C-88.79137746 560.29193016 -94.317419 558.2547672 -100 556.1875 C-100 555.5275 -100 554.8675 -100 554.1875 C-101.6396875 554.001875 -101.6396875 554.001875 -103.3125 553.8125 C-107 553.1875 -107 553.1875 -110 551.1875 C-112.3078491 550.03357545 -114.47230331 549.65312834 -117 549.1875 C-117 548.5275 -117 547.8675 -117 547.1875 C-117.77601563 547.12691406 -118.55203125 547.06632813 -119.3515625 547.00390625 C-124.47641815 545.85712377 -128.74644606 543.56270769 -133.375 541.125 C-134.376521 540.59914307 -135.37804199 540.07328613 -136.40991211 539.53149414 C-176.29771137 518.09780924 -176.29771137 518.09780924 -187 503.1875 C-187.61875 502.89875 -188.2375 502.61 -188.875 502.3125 C-192.01951757 500.6477554 -193.83652602 497.93248578 -196 495.1875 C-199.39830165 491.02502999 -202.6921296 487.4446703 -207 484.1875 C-215.39053076 477.53294112 -224.16180271 468.86389458 -229 459.1875 C-228.67 458.5275 -228.34 457.8675 -228 457.1875 C-228.60328125 457.10113281 -229.2065625 457.01476562 -229.828125 456.92578125 C-232.63919001 455.97022138 -233.21207682 454.88543342 -234.75 452.375 C-235.26175781 451.5603125 -235.77351563 450.745625 -236.30078125 449.90625 C-236.86152344 449.0090625 -237.42226562 448.111875 -238 447.1875 C-239.30854909 445.24732945 -240.62123074 443.30994127 -241.9375 441.375 C-248.19396843 431.94874585 -253.55691972 422.34713271 -258.24804688 412.06176758 C-259.9754115 408.28337825 -261.83499991 404.7406472 -264 401.1875 C-264.67939174 399.19178677 -265.34561559 397.19155227 -266 395.1875 C-266.495 394.218125 -266.99 393.24875 -267.5 392.25 C-269.13876721 388.90418362 -270.06478617 385.78447627 -271 382.1875 C-270.67 381.8575 -270.34 381.5275 -270 381.1875 C-270.45375 380.8575 -270.9075 380.5275 -271.375 380.1875 C-273.87353315 377.11238227 -274.25008383 374.0620669 -275 370.1875 C-274.67 369.8575 -274.34 369.5275 -274 369.1875 C-274.66 368.8575 -275.32 368.5275 -276 368.1875 C-276.6875 365.6875 -276.6875 365.6875 -277 363.1875 C-276.67 362.8575 -276.34 362.5275 -276 362.1875 C-276.66 361.8575 -277.32 361.5275 -278 361.1875 C-278.103125 360.383125 -278.20625 359.57875 -278.3125 358.75 C-278.539375 357.904375 -278.76625 357.05875 -279 356.1875 C-281.18137797 355.16299761 -281.18137797 355.16299761 -284 354.1875 C-291.78999653 349.30446234 -298.51232622 343.21197505 -301 334.1875 C-301.23100055 331.35564325 -301.37428745 328.62164838 -301.40625 325.7890625 C-301.41765015 324.99527191 -301.42905029 324.20148132 -301.4407959 323.38363647 C-301.45960769 321.71121481 -301.47272864 320.03872049 -301.48046875 318.36621094 C-301.49989565 315.82614384 -301.56200937 313.2893098 -301.625 310.75 C-301.80064765 297.14208839 -301.80064765 297.14208839 -298.0859375 292.2109375 C-297.07627628 291.18410621 -296.04968579 290.17337932 -295 289.1875 C-293.96986723 287.53928756 -292.95289657 285.88153834 -292 284.1875 C-292.7425 283.836875 -293.485 283.48625 -294.25 283.125 C-298.15873447 280.3711189 -300.52657954 276.84052641 -301.36740112 272.12860107 C-301.509156 269.86496794 -301.52878136 267.63498411 -301.49609375 265.3671875 C-301.49754898 264.54550079 -301.49900421 263.72381409 -301.50050354 262.87722778 C-301.49885258 261.1510257 -301.48738192 259.42480767 -301.46655273 257.69873047 C-301.43750374 255.06283971 -301.44597869 252.42895217 -301.45898438 249.79296875 C-301.45274866 248.10936527 -301.44435902 246.42576811 -301.43359375 244.7421875 C-301.43799721 243.56703079 -301.43799721 243.56703079 -301.44248962 242.36813354 C-301.36498043 237.85955395 -300.95938687 234.69037668 -298 231.1875 C-297.01 231.1875 -296.02 231.1875 -295 231.1875 C-295.33 230.1975 -295.66 229.2075 -296 228.1875 C-291.52184832 223.33150427 -286.95696069 219.15913327 -281 216.1875 C-280.34 216.1875 -279.68 216.1875 -279 216.1875 C-278.87625 215.383125 -278.7525 214.57875 -278.625 213.75 C-278.41875 212.904375 -278.2125 212.05875 -278 211.1875 C-277.34 210.8575 -276.68 210.5275 -276 210.1875 C-276 208.8675 -276 207.5475 -276 206.1875 C-276 205.5275 -276 204.8675 -276 204.1875 C-275.34 203.8575 -274.68 203.5275 -274 203.1875 C-274 201.8675 -274 200.5475 -274 199.1875 C-273.125 195.5 -273.125 195.5 -272 192.1875 C-271.34 191.8575 -270.68 191.5275 -270 191.1875 C-270 190.1975 -270 189.2075 -270 188.1875 C-268.89356116 183.48513491 -267.29719234 179.52176554 -265 175.27734375 C-263.91048024 173.12849499 -263.91048024 173.12849499 -263.15234375 170.47265625 C-261.68854561 166.29959103 -259.67169658 162.56515057 -257.5625 158.6875 C-256.77151632 157.21908332 -255.98114023 155.75033917 -255.19140625 154.28125 C-254.8142749 153.58177246 -254.43714355 152.88229492 -254.04858398 152.16162109 C-253.13259391 150.43712849 -252.25438759 148.6926732 -251.3828125 146.9453125 C-247.02337164 138.25106038 -241.45266598 130.22004306 -236 122.1875 C-235.49984375 121.42308594 -234.9996875 120.65867187 -234.484375 119.87109375 C-233.1875 117.9375 -233.1875 117.9375 -231 115.1875 C-230.01 115.1875 -229.02 115.1875 -228 115.1875 C-228.33 114.1975 -228.66 113.2075 -229 112.1875 C-227.77734375 110.42578125 -227.77734375 110.42578125 -225.9375 108.5 C-223.46009848 105.82186041 -221.18237684 103.15649878 -219.0625 100.1875 C-214.87640999 94.50878272 -210.35658594 89.34076704 -204 86.1875 C-202.11561906 84.61700907 -202.11561906 84.61700907 -200.375 82.8125 C-199.78460938 82.22726563 -199.19421875 81.64203125 -198.5859375 81.0390625 C-196.9808168 79.16510384 -196.08538052 77.38877374 -195 75.1875 C-193.59765625 73.51953125 -193.59765625 73.51953125 -192.0625 72 C-191.30646484 71.23623047 -191.30646484 71.23623047 -190.53515625 70.45703125 C-189 69.1875 -189 69.1875 -186 68.1875 C-184.65080468 66.53364767 -183.31866272 64.865798 -182 63.1875 C-179.58175203 61.13565324 -178.03873322 60.20041107 -175 59.1875 C-173.87035267 58.02168693 -172.74135792 56.85523421 -171.61572266 55.68554688 C-168.16146539 52.48286894 -164.11215184 50.02033329 -160.1875 47.4375 C-159.25623291 46.82132813 -158.32496582 46.20515625 -157.36547852 45.5703125 C-129.31629692 27.19284819 -129.31629692 27.19284819 -118.796875 24.65625 C-116.76271158 24.28735791 -116.76271158 24.28735791 -115 22.1875 C-112.375 22.0625 -112.375 22.0625 -110 22.1875 C-110 21.5275 -110 20.8675 -110 20.1875 C-106.49223216 18.58394899 -103.85645121 17.96713136 -100 18.1875 C-100 17.5275 -100 16.8675 -100 16.1875 C-97.62854106 15.34270547 -95.25365876 14.51156717 -92.875 13.6875 C-92.20984375 13.44902344 -91.5446875 13.21054687 -90.859375 12.96484375 C-86.76645945 11.56041194 -83.38868208 10.91406186 -79 11.1875 C-79 10.5275 -79 9.8675 -79 9.1875 C-78.030625 9.249375 -77.06125 9.31125 -76.0625 9.375 C-72.09193497 9.39114051 -68.81300673 8.30169608 -65.11328125 6.94140625 C-63 6.1875 -63 6.1875 -61.04296875 5.71484375 C-58.89226651 5.21657773 -58.89226651 5.21657773 -56.5546875 4.125 C-53.81306989 3.11890179 -52.02187632 3.04310741 -49.125 3.1875 C-43.35386434 3.30385354 -37.8625448 2.59093516 -32.1640625 1.72265625 C-21.486351 0.24476761 -10.76463216 -0.00606496 0 0 Z M-54 4.1875 C-50 5.1875 -50 5.1875 -50 5.1875 Z M51 4.1875 C55 5.1875 55 5.1875 55 5.1875 Z M-54 567.1875 C-50 568.1875 -50 568.1875 -50 568.1875 Z M51 567.1875 C55 568.1875 55 568.1875 55 568.1875 Z " fill="#070602" transform="translate(301,15.8125)"/>
<path d="M0 0 C0.97742661 -0.00970322 1.95485321 -0.01940643 2.9618988 -0.02940369 C6.09964159 -0.05417571 9.23716941 -0.06690872 12.375 -0.07421875 C13.44614044 -0.07683716 14.51728088 -0.07945557 15.62088013 -0.08215332 C32.21870735 -0.08650094 48.09643477 0.74108808 64.375 4.23828125 C65.18759277 4.40376465 66.00018555 4.56924805 66.83740234 4.73974609 C71.73352523 5.74605168 76.54885544 6.93761818 81.375 8.23828125 C82.63699219 8.56054688 83.89898437 8.8828125 85.19921875 9.21484375 C121.22651934 18.80246616 154.57213802 36.73335502 183.375 60.23828125 C183.90544922 60.6672168 184.43589844 61.09615234 184.98242188 61.53808594 C199.41172942 73.27358282 213.09374448 86.42473437 224.375 101.23828125 C225.56416016 102.73681641 225.56416016 102.73681641 226.77734375 104.265625 C235.15832267 114.86648344 242.6587124 125.97442868 249.3125 137.73828125 C249.67802979 138.38450439 250.04355957 139.03072754 250.42016602 139.6965332 C252.10000068 142.72840119 253.63764952 145.7564834 254.98046875 148.953125 C256.09731105 151.58411764 257.26625041 153.87599585 258.75 156.30078125 C262.15033587 162.28209495 264.16084635 168.74958096 266.375 175.23828125 C266.90915412 176.67858969 267.44931705 178.11671106 268 179.55078125 C270.28825109 185.68745463 272.33377859 191.56039222 273.46484375 198.03125 C273.72382446 199.49921021 273.72382446 199.49921021 273.98803711 200.99682617 C274.11573486 201.73650635 274.24343262 202.47618652 274.375 203.23828125 C267.08925319 203.35533266 259.80371663 203.44357139 252.51721191 203.49734211 C249.13189945 203.52318005 245.74724091 203.55808744 242.36230469 203.61547852 C224.18433748 203.90097874 208.39038248 203.93828886 192.5625 193.98828125 C191.95124268 193.60478516 191.33998535 193.22128906 190.71020508 192.82617188 C184.88499431 189.08950299 179.56175374 184.81482867 174.375 180.23828125 C173.60414063 179.56539062 172.83328125 178.8925 172.0390625 178.19921875 C169.45622545 175.90813073 166.91237154 173.57966271 164.375 171.23828125 C163.81216309 170.72056152 163.24932617 170.2028418 162.66943359 169.66943359 C155.49603786 163.05791273 148.45613736 156.35924273 141.64599609 149.37255859 C116.12221005 123.27804072 83.60076605 106.54646348 47.375 101.23828125 C46.25697998 101.0683667 45.13895996 100.89845215 43.98706055 100.72338867 C33.36057758 99.23619822 22.90893399 98.87940308 12.1875 98.92578125 C11.33226746 98.92727173 10.47703491 98.92876221 9.59588623 98.93029785 C-3.36231274 98.97084234 -15.9092966 99.56371807 -28.625 102.23828125 C-29.34623047 102.3775 -30.06746094 102.51671875 -30.81054688 102.66015625 C-61.1494565 108.54803089 -91.06088543 123.32913857 -112.3671875 145.97265625 C-114.27018329 147.8822368 -116.20388294 149.61357633 -118.25 151.36328125 C-122.40711736 154.96502544 -126.23939195 158.83199403 -130.08374023 162.76269531 C-138.78624331 171.65883525 -147.43284498 180.08052532 -157.625 187.23828125 C-158.19234863 187.63934082 -158.75969727 188.04040039 -159.34423828 188.45361328 C-170.89586175 196.53106428 -183.08558016 203.38392441 -197.53857422 203.35180664 C-198.67930389 203.35173111 -199.82003357 203.35165558 -200.99533081 203.35157776 C-202.21116852 203.34641647 -203.42700623 203.34125519 -204.6796875 203.3359375 C-205.93637238 203.33452255 -207.19305725 203.3331076 -208.48782349 203.33164978 C-211.8119194 203.32701199 -215.13594542 203.31804305 -218.46002197 203.3069458 C-221.85875854 203.29667526 -225.25750235 203.29214012 -228.65625 203.28710938 C-235.31251917 203.27609824 -241.96875555 203.25937347 -248.625 203.23828125 C-248.1684011 201.0449386 -247.70801331 198.85238454 -247.24609375 196.66015625 C-246.86215454 194.82855957 -246.86215454 194.82855957 -246.47045898 192.95996094 C-244.37570313 183.73892187 -241.27374114 174.94620129 -237.625 166.23828125 C-236.9559139 164.57258439 -236.2886279 162.90616021 -235.625 161.23828125 C-234.965 161.23828125 -234.305 161.23828125 -233.625 161.23828125 C-233.52960938 160.3978125 -233.43421875 159.55734375 -233.3359375 158.69140625 C-232.53006678 154.77717706 -231.06304593 151.51158972 -229.25 147.98828125 C-228.89695801 147.29645752 -228.54391602 146.60463379 -228.18017578 145.8918457 C-214.87118989 120.28021905 -197.32525743 97.85429085 -177.0625 77.42578125 C-176.20003662 76.5538916 -175.33757324 75.68200195 -174.44897461 74.78369141 C-168.4836298 68.84828914 -162.23101175 63.44736582 -155.625 58.23828125 C-154.93962158 57.69357178 -154.25424316 57.1488623 -153.5480957 56.58764648 C-131.96064355 39.60770344 -107.38182284 25.79048045 -81.625 16.23828125 C-80.60011475 15.85091797 -79.57522949 15.46355469 -78.51928711 15.06445312 C-70.22302464 12.00064728 -61.92067183 9.62328185 -53.3125 7.61328125 C-51.41781982 7.1644458 -51.41781982 7.1644458 -49.48486328 6.70654297 C-33.043567 2.86440951 -16.92153267 0.1411137 0 0 Z " fill="#F6C632" transform="translate(288.625,31.76171875)"/>
<path d="M0 0 C7.29368256 -0.04651906 14.58733267 -0.08196802 21.88113403 -0.10362434 C25.26862868 -0.11402286 28.65602116 -0.12810933 32.04345703 -0.15087891 C35.94566514 -0.17522296 39.84772963 -0.18650525 43.75 -0.1953125 C45.55827271 -0.21079636 45.55827271 -0.21079636 47.40307617 -0.22659302 C69.04429519 -0.22945925 86.1732978 11.24183334 102 25 C102.80695313 25.69609375 103.61390625 26.3921875 104.4453125 27.109375 C111.61057593 33.42217944 118.29259555 40.21027536 125 47 C128.96589326 51.01360326 133.06799864 54.80426091 137.28515625 58.55078125 C139.04993615 60.14289204 140.78892558 61.76423307 142.49609375 63.41796875 C163.42107665 83.45117155 191.82567464 95.56152433 220 101 C220.71091797 101.14953125 221.42183594 101.2990625 222.15429688 101.453125 C253.30335598 107.85399454 292.04251857 106.7860458 322 96 C323.15193848 95.5980542 323.15193848 95.5980542 324.32714844 95.18798828 C355.49386534 84.24471833 376.91526694 67.37561671 399.84619141 44.11767578 C404.17956563 39.73775248 408.57288597 35.52343881 413.25073242 31.51293945 C415.57509949 29.50259714 417.77667008 27.37093972 420 25.25 C436.92672287 9.84926463 455.49695096 -0.59021012 478.76171875 -0.29296875 C480.03352493 -0.28872391 481.30533112 -0.28447906 482.61567688 -0.28010559 C485.95802699 -0.26626412 489.29973341 -0.23942643 492.64190674 -0.20599365 C496.06785595 -0.17502058 499.4938723 -0.16154276 502.91992188 -0.14648438 C509.61347811 -0.1135768 516.30665144 -0.06187849 523 0 C522.34 3.96 521.68 7.92 521 12 C520.34 12 519.68 12 519 12 C518.74992188 13.2684375 518.49984375 14.536875 518.2421875 15.84375 C517.03425918 21.26987442 515.14848676 26.33221039 513.125 31.5 C512.78597656 32.38558594 512.44695313 33.27117187 512.09765625 34.18359375 C501.12026297 62.60794668 484.73089808 89.32453408 464.06640625 111.75 C462.24386514 113.7344682 460.49216442 115.75785892 458.75 117.8125 C450.32641198 127.4450289 441.09986548 136.14926423 431 144 C430.01773437 144.78761719 429.03546875 145.57523438 428.0234375 146.38671875 C406.74853222 163.31229601 382.90595111 176.00054828 357.67114258 185.93945312 C355.94775356 186.62370519 354.23076015 187.32440108 352.5222168 188.04492188 C345.92662609 190.80417331 339.23456034 192.7321753 332.3125 194.5 C331.14219238 194.80115723 329.97188477 195.10231445 328.76611328 195.41259766 C311.26872275 199.80763198 293.50475777 203.12064487 275.4296875 203.203125 C274.43156036 203.20882507 273.43343323 203.21452515 272.40505981 203.22039795 C270.29560386 203.22980114 268.18613352 203.23636319 266.07666016 203.24023438 C262.93233594 203.24982512 259.78869936 203.28084564 256.64453125 203.3125 C237.99966169 203.41091856 219.74579643 201.4937953 201.5625 197.3125 C200.44544678 197.05831299 199.32839355 196.80412598 198.17749023 196.54223633 C179.31393581 192.09364909 161.38497073 185.53066171 144 177 C143.13777832 176.57847656 142.27555664 176.15695312 141.38720703 175.72265625 C128.59693778 169.40369603 116.62952887 162.25775782 105 154 C104.43490723 153.60071289 103.86981445 153.20142578 103.28759766 152.79003906 C84.13863518 139.14854772 66.35220368 122.63055615 52 104 C51.40058594 103.29101562 50.80117187 102.58203125 50.18359375 101.8515625 C37.74136833 87.045574 28.10795858 70.17001145 19.13964844 53.11694336 C18.24013116 51.4460534 17.27403823 49.81101022 16.28515625 48.19140625 C14.89742944 45.82510005 14.00942324 43.53206905 13.125 40.9375 C11.76884925 37.06425128 10.28351145 33.31541372 8.625 29.5625 C6.25392788 23.96351974 4.43832418 18.25299693 2.6875 12.4375 C2.4208252 11.55586182 2.15415039 10.67422363 1.87939453 9.76586914 C0 3.38939611 0 3.38939611 0 0 Z " fill="#F7C632" transform="translate(40,369)"/>
<path d="M0 0 C1.69040262 -0.00524818 3.38080231 -0.01152898 5.07119751 -0.01878357 C8.60994255 -0.02916115 12.14828497 -0.02467246 15.68701172 -0.01000977 C20.16601036 0.00705174 24.64371073 -0.01617281 29.12256432 -0.05149937 C32.61650694 -0.07375424 36.11015333 -0.07196318 39.60414505 -0.06373405 C41.25194331 -0.06292739 42.89976631 -0.0695377 44.5474968 -0.08450508 C69.51244944 -0.27632573 91.22016407 8.23908761 110.7265625 23.56640625 C111.70367187 24.33210938 112.68078125 25.0978125 113.6875 25.88671875 C126.40034277 36.10684725 137.77941292 47.52768873 149.20141602 59.13720703 C157.04539044 67.10116035 164.844883 74.74904299 173.7265625 81.56640625 C174.63615723 82.27434326 175.54575195 82.98228027 176.48291016 83.71166992 C203.51570567 104.49574504 237.5422011 108.58055687 270.82177734 105.25732422 C276.89906865 104.44320632 282.81112936 103.16873137 288.7265625 101.56640625 C289.51981934 101.35209961 290.31307617 101.13779297 291.13037109 100.91699219 C310.53347557 95.46841963 327.04997388 84.95650132 340.94140625 70.38671875 C342.76371991 68.52851707 344.67329598 66.86661095 346.6640625 65.19140625 C349.58842246 62.67758144 352.13659983 60.04034883 354.6640625 57.12890625 C376.54491089 32.33816956 406.81463028 5.37134233 440.7265625 0.56640625 C443.30140222 0.46178823 445.8503496 0.39938506 448.42504883 0.3894043 C449.54584587 0.3795475 449.54584587 0.3795475 450.68928528 0.36949158 C453.14572269 0.34988798 455.60209939 0.33812624 458.05859375 0.328125 C458.90239782 0.32404947 459.7462019 0.31997395 460.61557579 0.31577492 C465.08038457 0.29497121 469.54516312 0.2806439 474.01000977 0.27124023 C478.60303893 0.26017612 483.19558364 0.22575993 487.78844166 0.18606853 C491.33767047 0.15983966 494.88678472 0.15154296 498.43610191 0.14795876 C500.12846849 0.14311054 501.82083056 0.13154727 503.51310158 0.11292076 C515.93547665 -0.01533517 524.6872974 1.10554429 534.06640625 9.83203125 C539.30859476 15.30857642 540.21739813 21.1395486 540.12890625 28.484375 C539.18087287 35.74649479 535.62659522 42.50392986 529.9140625 47.12890625 C522.06376291 52.69170133 513.22831179 52.99062741 503.91884422 52.9465313 C501.78481471 52.93729566 499.6516409 52.9477847 497.51765442 52.96315002 C491.45701182 53.00290183 485.39644488 53.00446339 479.33569336 53.00219727 C475.60981684 53.0021457 471.88440402 53.02153987 468.15865517 53.05153084 C466.07811531 53.06219959 463.99852178 53.05032158 461.91801453 53.03770447 C453.46849125 53.10336555 446.54615362 54.35738697 438.7265625 57.56640625 C436.90898438 58.30890625 436.90898438 58.30890625 435.0546875 59.06640625 C413.07674711 69.77646857 395.25213965 87.65855914 378.40380859 105.00561523 C345.25583557 139.05536239 304.46505694 157.06158109 256.75639343 157.89183044 C208.17103865 158.47926951 166.32945297 145.50851074 130.7265625 111.56640625 C125.94170251 106.88786413 121.26055998 102.10321861 116.57836914 97.32226562 C109.62157635 90.22931739 102.53360406 83.73018834 94.7265625 77.56640625 C93.09944551 76.21478402 91.47415109 74.86096138 89.8515625 73.50390625 C71.47271548 58.92258125 52.26764317 52.06040878 28.89453125 52.23046875 C27.52361822 52.2262995 26.15271005 52.220101 24.78181458 52.21200562 C19.03879736 52.18148322 13.29602605 52.18595499 7.55297852 52.20605469 C4.00930487 52.21703388 0.4663577 52.20367137 -3.07721519 52.17615891 C-5.05399743 52.16817659 -7.03083036 52.18792068 -9.00752258 52.20840454 C-16.54309039 52.14665371 -22.28103653 51.39634817 -28.2734375 46.56640625 C-34.64920973 39.71650273 -37.88200746 32.70479904 -37.546875 23.26953125 C-36.80200852 15.90599405 -33.9280182 11.66517641 -28.796875 6.42578125 C-19.81248418 -0.19429619 -10.72518878 -0.04076642 0 0 Z " fill="#F6C532" transform="translate(50.2734375,306.43359375)"/>
<path d="M0 0 C0.85867676 0.16097168 1.71735352 0.32194336 2.60205078 0.48779297 C41.28936974 7.90327797 69.29296214 29.93169999 96.25 57.25 C105.81781329 66.95152828 105.81781329 66.95152828 116 76 C116.78769775 76.65548828 116.78769775 76.65548828 117.59130859 77.32421875 C131.54637653 88.72349629 148.69230105 101.05095891 167.36987305 101.15771484 C169.30790047 101.17310806 169.30790047 101.17310806 171.28507996 101.18881226 C171.97335562 101.19225018 172.66163128 101.1956881 173.37076378 101.19923019 C175.53696513 101.21107555 177.70297211 101.23054464 179.86909485 101.25234985 C186.02683951 101.31376088 192.18456442 101.36786744 198.3425293 101.40136719 C202.11448822 101.42243456 205.88609192 101.45783513 209.65784645 101.50212479 C211.08777469 101.51619238 212.51776576 101.52498613 213.94775963 101.52817917 C223.95832228 101.5528889 232.86893272 101.85375603 240.875 108.4375 C241.59429688 109.01371094 242.31359375 109.58992188 243.0546875 110.18359375 C247.20272651 114.05676271 249.55274129 118.03691102 250.40625 123.69140625 C250.70231786 132.75848461 248.23098761 139.99974191 242.32421875 146.98046875 C236.29490117 152.59397133 229.26879322 154.37095754 221.18554688 154.40405273 C220.44930084 154.41091599 219.71305481 154.41777924 218.95449829 154.42485046 C216.5423806 154.44301149 214.13092083 154.43929292 211.71875 154.43359375 C210.0197326 154.43816408 208.32071704 154.44347216 206.6217041 154.44947815 C203.06445807 154.45839095 199.50743669 154.4560111 195.95019531 154.44604492 C191.43630445 154.43461914 186.9232034 154.45467711 182.4094162 154.48396206 C178.8984703 154.50250229 175.38770692 154.50199555 171.87672424 154.49632454 C170.21528525 154.49617316 168.55383237 154.50206242 166.8924408 154.51461601 C144.36875487 154.66072284 125.4237038 147.87870557 107 135 C105.98035156 134.2884375 104.96070313 133.576875 103.91015625 132.84375 C96.67892077 127.59849115 90.18336815 121.74696439 83.71484375 115.61328125 C81.9291881 113.93338197 80.1239907 112.27698837 78.3125 110.625 C72.78260605 105.5721978 67.38676722 100.57873106 62.56640625 94.828125 C57.28556158 88.66494469 51.22891973 83.18393649 45 78 C44.26136719 77.3827002 44.26136719 77.3827002 43.5078125 76.75292969 C13.61062321 51.95185221 -20.10771519 46.17050092 -58.1875 49.46875 C-94.87672699 53.40999404 -118.73559731 73.612607 -143.85546875 98.87109375 C-144.46551758 99.48393723 -145.07556641 100.0967807 -145.70410156 100.72819519 C-148.77452551 103.81479907 -151.83774348 106.9080302 -154.88916016 110.01342773 C-161.60830025 116.82056257 -168.41844469 123.14481424 -176 129 C-176.93694702 129.73355713 -176.93694702 129.73355713 -177.89282227 130.48193359 C-194.81002249 143.5129195 -214.76561388 154.05935722 -236.5690918 154.19287109 C-237.68726036 154.20513733 -237.68726036 154.20513733 -238.82801819 154.21765137 C-241.28507713 154.24237955 -243.74207874 154.25899028 -246.19921875 154.2734375 C-247.04269175 154.27876118 -247.88616474 154.28408485 -248.75519753 154.28956985 C-253.2211478 154.31624873 -257.68707066 154.33563909 -262.15307617 154.35009766 C-265.83399382 154.36342225 -269.51435521 154.3912548 -273.19506836 154.43212891 C-277.65536686 154.48164698 -282.11516206 154.50624175 -286.57572365 154.51332474 C-288.26728633 154.52000432 -289.95883923 154.53513974 -291.65024376 154.55921555 C-301.91530179 154.6969797 -311.13050146 154.63616894 -318.98100281 147.0977478 C-323 142.73344235 -323 142.73344235 -323 140 C-323.66 140 -324.32 140 -325 140 C-327.67081496 132.65525886 -328.72541023 124.02316752 -325.5 116.6875 C-321.71688261 110.24815125 -315.73603046 105.95689058 -309 103 C-306.00114441 102.62818909 -306.00114441 102.62818909 -302.80541992 102.63110352 C-301.59943649 102.62422012 -300.39345306 102.61733673 -299.15092468 102.61024475 C-297.85717422 102.61640305 -296.56342377 102.62256134 -295.23046875 102.62890625 C-293.867284 102.62219824 -292.50410734 102.61361335 -291.14094543 102.60325623 C-285.38377182 102.56345975 -279.62667324 102.56192357 -273.86938477 102.56420898 C-246.40536101 102.95311352 -246.40536101 102.95311352 -220.6875 94.25 C-220.03418701 93.90493408 -219.38087402 93.55986816 -218.70776367 93.2043457 C-198.37329814 82.25272317 -181.67928626 65.92389546 -165.63760376 49.5402832 C-140.88778702 24.33756454 -113.53297961 7.93924319 -79 0 C-78.26797363 -0.16951172 -77.53594727 -0.33902344 -76.78173828 -0.51367188 C-52.49680293 -5.82341959 -24.25984589 -4.83851551 0 0 Z " fill="#F6C532" transform="translate(340,143)"/>
<path d="M0 0 C1.11890625 0.39574219 2.2378125 0.79148438 3.390625 1.19921875 C16.33810312 6.19561736 26.81989677 13.77428145 37 23 C38.12921875 24.00353516 38.12921875 24.00353516 39.28125 25.02734375 C46.86734508 32.14683378 53.38753648 41.2748418 57.1484375 51 C57.97562034 53.10134883 57.97562034 53.10134883 59.4375 55.21875 C61.47187025 58.83992905 62.51023138 62.51573438 63.625 66.5 C63.8415625 67.24636719 64.058125 67.99273437 64.28125 68.76171875 C66.7406082 77.33911001 67.21421418 85.12946424 67.25 94.0625 C67.2809375 95.95258789 67.2809375 95.95258789 67.3125 97.88085938 C67.36191342 109.83272967 64.74378435 120.00237222 60.25 131 C59.89929443 131.86230225 59.54858887 132.72460449 59.18725586 133.61303711 C54.41102347 145.10035569 48.25814322 154.68793291 40 164 C39.07960938 165.04607422 39.07960938 165.04607422 38.140625 166.11328125 C25.20721306 179.90339355 8.11592651 188.32706541 -10 193 C-10.60827637 193.17732666 -11.21655273 193.35465332 -11.84326172 193.53735352 C-18.60024259 195.3206441 -25.37496427 195.3380483 -32.31933594 195.31567383 C-34.36447657 195.31251625 -36.40816238 195.3360362 -38.453125 195.36132812 C-46.4313912 195.39968372 -53.43309394 194.56217067 -61 192 C-62.62228516 191.52626953 -62.62228516 191.52626953 -64.27734375 191.04296875 C-89.6579499 182.8809236 -109.87188374 165.98287491 -122.4453125 142.5546875 C-133.65013652 120.67219105 -138.50695549 95.85796681 -132.3125 71.5625 C-131.58763933 69.35933925 -130.81666183 67.17080716 -130 65 C-129.53699844 63.66783183 -129.07749635 62.33444339 -128.62109375 61 C-127.46254624 57.64803415 -126.24812483 54.31980745 -125 51 C-124.34 51 -123.68 51 -123 51 C-122.896875 50.28199219 -122.79375 49.56398438 -122.6875 48.82421875 C-120.41470287 39.48767145 -112.46642026 31.73585443 -106 25 C-105.01 23.93265625 -105.01 23.93265625 -104 22.84375 C-99.15665229 17.76604676 -93.88408805 13.80313008 -88 10 C-87.195625 9.4740625 -86.39125 8.948125 -85.5625 8.40625 C-79.32656432 4.48880323 -72.93084867 1.48182485 -66 -1 C-64.93394531 -1.39574219 -63.86789062 -1.79148438 -62.76953125 -2.19921875 C-43.19318461 -8.28347043 -19.10851587 -7.07888166 0 0 Z " fill="#F6C532" transform="translate(335,207)"/>
<path d="M0 0 C1.00797638 -0.00058914 1.00797638 -0.00058914 2.03631592 -0.00119019 C13.06107414 0.00647564 23.91185308 0.65636137 34.86230469 1.94824219 C37.9858688 2.29784164 41.11520891 2.52660109 44.25 2.75 C58.62974684 3.81724684 58.62974684 3.81724684 60 5.1875 C61.33038449 5.5324145 62.66433619 5.86363108 64 6.1875 C65.44005241 6.70123404 66.87747691 7.2223805 68.3125 7.75 C72.4190464 9.15057708 75.68721867 9.46278391 80 9.1875 C80 9.8475 80 10.5075 80 11.1875 C81.2375 11.27 82.475 11.3525 83.75 11.4375 C89.79137746 12.08306984 95.317419 14.1202328 101 16.1875 C101 16.8475 101 17.5075 101 18.1875 C102.093125 18.31125 103.18625 18.435 104.3125 18.5625 C108 19.1875 108 19.1875 111 21.1875 C113.3078491 22.34142455 115.47230331 22.72187166 118 23.1875 C118 23.8475 118 24.5075 118 25.1875 C118.77601563 25.24808594 119.55203125 25.30867188 120.3515625 25.37109375 C125.47653627 26.51790266 129.74616069 28.81263537 134.375 31.25 C135.36999512 31.77150635 136.36499023 32.2930127 137.39013672 32.83032227 C145.23170894 37.03899612 152.71854115 41.69512912 160.125 46.625 C161.13739746 47.29861572 162.14979492 47.97223145 163.19287109 48.66625977 C167.92708093 51.88251788 172.04226661 55.07295076 176 59.1875 C177.3115003 59.89615307 178.64375844 60.56876658 180 61.1875 C181.26041438 62.14781572 182.49066029 63.14902737 183.6875 64.1875 C184.28949219 64.703125 184.89148438 65.21875 185.51171875 65.75 C187 67.1875 187 67.1875 188 69.1875 C188.93199219 69.64576172 188.93199219 69.64576172 189.8828125 70.11328125 C192.18126065 71.27946804 193.26413205 72.38644267 194.875 74.375 C195.38417969 74.99246094 195.89335937 75.60992187 196.41796875 76.24609375 C196.94003906 76.88675781 197.46210938 77.52742188 198 78.1875 C199.05855152 79.4408455 200.120934 80.69096753 201.1875 81.9375 C201.65542969 82.48921875 202.12335938 83.0409375 202.60546875 83.609375 C204.73798441 86.02264203 206.51758839 87.91378559 209.34765625 89.51953125 C212.56542895 91.54307903 214.93286984 94.06070008 217.4375 96.875 C218.15655518 97.67139893 218.15655518 97.67139893 218.89013672 98.48388672 C227.42342488 108.03434977 227.42342488 108.03434977 230 113.1875 C229.67 113.8475 229.34 114.5075 229 115.1875 C229.90492188 115.31705078 229.90492188 115.31705078 230.828125 115.44921875 C233.63919001 116.40477862 234.21207682 117.48956658 235.75 120 C236.26175781 120.8146875 236.77351562 121.629375 237.30078125 122.46875 C237.86152344 123.3659375 238.42226563 124.263125 239 125.1875 C240.30854909 127.12767055 241.62123074 129.06505873 242.9375 131 C249.19396843 140.42625415 254.55691972 150.02786729 259.24804688 160.31323242 C260.9754115 164.09162175 262.83499991 167.6343528 265 171.1875 C265.67939174 173.18321323 266.34561559 175.18344773 267 177.1875 C267.495 178.156875 267.99 179.12625 268.5 180.125 C270.13876721 183.47081638 271.06478617 186.59052373 272 190.1875 C271.67 190.5175 271.34 190.8475 271 191.1875 C271.45375 191.5175 271.9075 191.8475 272.375 192.1875 C274.87353315 195.26261773 275.25008383 198.3129331 276 202.1875 C275.67 202.5175 275.34 202.8475 275 203.1875 C275.66 203.5175 276.32 203.8475 277 204.1875 C277.6875 206.6875 277.6875 206.6875 278 209.1875 C277.67 209.5175 277.34 209.8475 277 210.1875 C277.66 210.5175 278.32 210.8475 279 211.1875 C279.1546875 212.3940625 279.1546875 212.3940625 279.3125 213.625 C279.539375 214.470625 279.76625 215.31625 280 216.1875 C282.18137797 217.21200239 282.18137797 217.21200239 285 218.1875 C289.75136523 221.2608037 293.71286227 224.53072155 297 229.1875 C296.67 229.8475 296.34 230.5075 296 231.1875 C296.61359375 231.26355469 297.2271875 231.33960938 297.859375 231.41796875 C300 232.1875 300 232.1875 301.265625 234.11328125 C301.59046875 234.90089844 301.9153125 235.68851563 302.25 236.5 C302.58515625 237.27988281 302.9203125 238.05976563 303.265625 238.86328125 C304 241.1875 304 241.1875 304 245.1875 C304.06776707 247.09644623 304.1383828 249.00529224 304.2109375 250.9140625 C304.26676234 253.21351434 304.32140444 255.51299512 304.375 257.8125 C304.45041016 259.51986328 304.45041016 259.51986328 304.52734375 261.26171875 C304.6678695 269.42158064 303.13449773 274.77413788 298 281.1875 C295.125 283.8125 295.125 283.8125 293 285.1875 C293.45890625 285.75597656 293.9178125 286.32445312 294.390625 286.91015625 C295.00421875 287.68230469 295.6178125 288.45445312 296.25 289.25 C296.85328125 290.00410156 297.4565625 290.75820313 298.078125 291.53515625 C298.71234375 292.41042969 299.3465625 293.28570312 300 294.1875 C300.73089844 295.15300781 301.46179688 296.11851562 302.21484375 297.11328125 C305.29804958 302.65540743 304.45453179 309.1704142 304.3125 315.3125 C304.29799805 317.20548828 304.29799805 317.20548828 304.28320312 319.13671875 C304.13806131 331.03834763 302.06240314 339.15620818 293.625 348 C284.91365521 356.1875 284.91365521 356.1875 280 356.1875 C279.87625 356.991875 279.7525 357.79625 279.625 358.625 C279.41875 359.470625 279.2125 360.31625 279 361.1875 C278.01 361.6825 278.01 361.6825 277 362.1875 C277 363.5075 277 364.8275 277 366.1875 C277 366.8475 277 367.5075 277 368.1875 C276.01 368.6825 276.01 368.6825 275 369.1875 C275 370.5075 275 371.8275 275 373.1875 C274.125 376.875 274.125 376.875 273 380.1875 C272.01 380.6825 272.01 380.6825 271 381.1875 C271 382.1775 271 383.1675 271 384.1875 C269.89356116 388.88986509 268.29719234 392.85323446 266 397.09765625 C264.91048024 399.24650501 264.91048024 399.24650501 264.15234375 401.90234375 C262.68854561 406.07540897 260.67169658 409.80984943 258.5625 413.6875 C257.77151632 415.15591668 256.98114023 416.62466083 256.19140625 418.09375 C255.8142749 418.79322754 255.43714355 419.49270508 255.04858398 420.21337891 C254.13259391 421.93787151 253.25438759 423.6823268 252.3828125 425.4296875 C248.02337164 434.12393962 242.45266598 442.15495694 237 450.1875 C236.49984375 450.95191406 235.9996875 451.71632813 235.484375 452.50390625 C234.1875 454.4375 234.1875 454.4375 232 457.1875 C231.01 457.1875 230.02 457.1875 229 457.1875 C229.33 458.1775 229.66 459.1675 230 460.1875 C228.77734375 461.94921875 228.77734375 461.94921875 226.9375 463.875 C224.46009848 466.55313959 222.18237684 469.21850122 220.0625 472.1875 C215.87640999 477.86621728 211.35658594 483.03423296 205 486.1875 C203.11561906 487.75799093 203.11561906 487.75799093 201.375 489.5625 C200.78460938 490.14773438 200.19421875 490.73296875 199.5859375 491.3359375 C197.9808168 493.20989616 197.08538052 494.98622626 196 497.1875 C194.59765625 498.85546875 194.59765625 498.85546875 193.0625 500.375 C192.55847656 500.88417969 192.05445313 501.39335938 191.53515625 501.91796875 C190 503.1875 190 503.1875 187 504.1875 C185.65080468 505.84135233 184.31866272 507.509202 183 509.1875 C180.58175203 511.23934676 179.03873322 512.17458893 176 513.1875 C174.87035267 514.35331307 173.74135792 515.51976579 172.61572266 516.68945312 C169.16146539 519.89213106 165.11215184 522.35466671 161.1875 524.9375 C160.25623291 525.55367187 159.32496582 526.16984375 158.36547852 526.8046875 C130.31629692 545.18215181 130.31629692 545.18215181 119.796875 547.71875 C117.76271158 548.08764209 117.76271158 548.08764209 116 550.1875 C113.375 550.3125 113.375 550.3125 111 550.1875 C111 550.8475 111 551.5075 111 552.1875 C107.49223216 553.79105101 104.85645121 554.40786864 101 554.1875 C101 554.8475 101 555.5075 101 556.1875 C98.62854106 557.03229453 96.25365876 557.86343283 93.875 558.6875 C93.20984375 558.92597656 92.5446875 559.16445313 91.859375 559.41015625 C87.76645945 560.81458806 84.38868208 561.46093814 80 561.1875 C80 561.8475 80 562.5075 80 563.1875 C79.030625 563.125625 78.06125 563.06375 77.0625 563 C73.09193497 562.98385949 69.81300673 564.07330392 66.11328125 565.43359375 C64 566.1875 64 566.1875 62.04296875 566.66015625 C59.89226651 567.15842227 59.89226651 567.15842227 57.5546875 568.25 C54.81306989 569.25609821 53.02187632 569.33189259 50.125 569.1875 C44.35386434 569.07114646 38.8625448 569.78406484 33.1640625 570.65234375 C22.486351 572.13023239 11.76463216 572.38106496 1 572.375 C-0.00797638 572.37558914 -0.00797638 572.37558914 -1.03631592 572.37619019 C-12.06107414 572.36852436 -22.91185308 571.71863863 -33.86230469 570.42675781 C-36.9858688 570.07715836 -40.11520891 569.84839891 -43.25 569.625 C-57.62974684 568.55775316 -57.62974684 568.55775316 -59 567.1875 C-60.33038449 566.8425855 -61.66433619 566.51136892 -63 566.1875 C-64.44005241 565.67376596 -65.87747691 565.1526195 -67.3125 564.625 C-71.4190464 563.22442292 -74.68721867 562.91221609 -79 563.1875 C-79 562.5275 -79 561.8675 -79 561.1875 C-80.2375 561.105 -81.475 561.0225 -82.75 560.9375 C-88.79137746 560.29193016 -94.317419 558.2547672 -100 556.1875 C-100 555.5275 -100 554.8675 -100 554.1875 C-101.6396875 554.001875 -101.6396875 554.001875 -103.3125 553.8125 C-107 553.1875 -107 553.1875 -110 551.1875 C-112.3078491 550.03357545 -114.47230331 549.65312834 -117 549.1875 C-117 548.5275 -117 547.8675 -117 547.1875 C-117.77601563 547.12691406 -118.55203125 547.06632813 -119.3515625 547.00390625 C-124.47641815 545.85712377 -128.74644606 543.56270769 -133.375 541.125 C-134.376521 540.59914307 -135.37804199 540.07328613 -136.40991211 539.53149414 C-176.29771137 518.09780924 -176.29771137 518.09780924 -187 503.1875 C-187.61875 502.89875 -188.2375 502.61 -188.875 502.3125 C-192.01951757 500.6477554 -193.83652602 497.93248578 -196 495.1875 C-199.39830165 491.02502999 -202.6921296 487.4446703 -207 484.1875 C-215.39053076 477.53294112 -224.16180271 468.86389458 -229 459.1875 C-228.67 458.5275 -228.34 457.8675 -228 457.1875 C-228.60328125 457.10113281 -229.2065625 457.01476562 -229.828125 456.92578125 C-232.63919001 455.97022138 -233.21207682 454.88543342 -234.75 452.375 C-235.26175781 451.5603125 -235.77351563 450.745625 -236.30078125 449.90625 C-236.86152344 449.0090625 -237.42226562 448.111875 -238 447.1875 C-239.30854909 445.24732945 -240.62123074 443.30994127 -241.9375 441.375 C-248.19396843 431.94874585 -253.55691972 422.34713271 -258.24804688 412.06176758 C-259.9754115 408.28337825 -261.83499991 404.7406472 -264 401.1875 C-264.67939174 399.19178677 -265.34561559 397.19155227 -266 395.1875 C-266.495 394.218125 -266.99 393.24875 -267.5 392.25 C-269.13876721 388.90418362 -270.06478617 385.78447627 -271 382.1875 C-270.67 381.8575 -270.34 381.5275 -270 381.1875 C-270.45375 380.8575 -270.9075 380.5275 -271.375 380.1875 C-273.87353315 377.11238227 -274.25008383 374.0620669 -275 370.1875 C-274.67 369.8575 -274.34 369.5275 -274 369.1875 C-274.66 368.8575 -275.32 368.5275 -276 368.1875 C-276.6875 365.6875 -276.6875 365.6875 -277 363.1875 C-276.67 362.8575 -276.34 362.5275 -276 362.1875 C-276.66 361.8575 -277.32 361.5275 -278 361.1875 C-278.103125 360.383125 -278.20625 359.57875 -278.3125 358.75 C-278.539375 357.904375 -278.76625 357.05875 -279 356.1875 C-281.18137797 355.16299761 -281.18137797 355.16299761 -284 354.1875 C-291.78999653 349.30446234 -298.51232622 343.21197505 -301 334.1875 C-301.23100055 331.35564325 -301.37428745 328.62164838 -301.40625 325.7890625 C-301.41765015 324.99527191 -301.42905029 324.20148132 -301.4407959 323.38363647 C-301.45960769 321.71121481 -301.47272864 320.03872049 -301.48046875 318.36621094 C-301.49989565 315.82614384 -301.56200937 313.2893098 -301.625 310.75 C-301.80064765 297.14208839 -301.80064765 297.14208839 -298.0859375 292.2109375 C-297.07627628 291.18410621 -296.04968579 290.17337932 -295 289.1875 C-293.96986723 287.53928756 -292.95289657 285.88153834 -292 284.1875 C-292.7425 283.836875 -293.485 283.48625 -294.25 283.125 C-298.15873447 280.3711189 -300.52657954 276.84052641 -301.36740112 272.12860107 C-301.509156 269.86496794 -301.52878136 267.63498411 -301.49609375 265.3671875 C-301.49754898 264.54550079 -301.49900421 263.72381409 -301.50050354 262.87722778 C-301.49885258 261.1510257 -301.48738192 259.42480767 -301.46655273 257.69873047 C-301.43750374 255.06283971 -301.44597869 252.42895217 -301.45898438 249.79296875 C-301.45274866 248.10936527 -301.44435902 246.42576811 -301.43359375 244.7421875 C-301.43799721 243.56703079 -301.43799721 243.56703079 -301.44248962 242.36813354 C-301.36498043 237.85955395 -300.95938687 234.69037668 -298 231.1875 C-297.01 231.1875 -296.02 231.1875 -295 231.1875 C-295.33 230.1975 -295.66 229.2075 -296 228.1875 C-291.52184832 223.33150427 -286.95696069 219.15913327 -281 216.1875 C-280.34 216.1875 -279.68 216.1875 -279 216.1875 C-278.87625 215.383125 -278.7525 214.57875 -278.625 213.75 C-278.41875 212.904375 -278.2125 212.05875 -278 211.1875 C-277.34 210.8575 -276.68 210.5275 -276 210.1875 C-276 208.8675 -276 207.5475 -276 206.1875 C-276 205.5275 -276 204.8675 -276 204.1875 C-275.34 203.8575 -274.68 203.5275 -274 203.1875 C-274 201.8675 -274 200.5475 -274 199.1875 C-273.125 195.5 -273.125 195.5 -272 192.1875 C-271.34 191.8575 -270.68 191.5275 -270 191.1875 C-270 190.1975 -270 189.2075 -270 188.1875 C-268.89356116 183.48513491 -267.29719234 179.52176554 -265 175.27734375 C-263.91048024 173.12849499 -263.91048024 173.12849499 -263.15234375 170.47265625 C-261.68854561 166.29959103 -259.67169658 162.56515057 -257.5625 158.6875 C-256.77151632 157.21908332 -255.98114023 155.75033917 -255.19140625 154.28125 C-254.8142749 153.58177246 -254.43714355 152.88229492 -254.04858398 152.16162109 C-253.13259391 150.43712849 -252.25438759 148.6926732 -251.3828125 146.9453125 C-247.02337164 138.25106038 -241.45266598 130.22004306 -236 122.1875 C-235.49984375 121.42308594 -234.9996875 120.65867187 -234.484375 119.87109375 C-233.1875 117.9375 -233.1875 117.9375 -231 115.1875 C-230.01 115.1875 -229.02 115.1875 -228 115.1875 C-228.33 114.1975 -228.66 113.2075 -229 112.1875 C-227.77734375 110.42578125 -227.77734375 110.42578125 -225.9375 108.5 C-223.46009848 105.82186041 -221.18237684 103.15649878 -219.0625 100.1875 C-214.87640999 94.50878272 -210.35658594 89.34076704 -204 86.1875 C-202.11561906 84.61700907 -202.11561906 84.61700907 -200.375 82.8125 C-199.78460938 82.22726563 -199.19421875 81.64203125 -198.5859375 81.0390625 C-196.9808168 79.16510384 -196.08538052 77.38877374 -195 75.1875 C-193.59765625 73.51953125 -193.59765625 73.51953125 -192.0625 72 C-191.30646484 71.23623047 -191.30646484 71.23623047 -190.53515625 70.45703125 C-189 69.1875 -189 69.1875 -186 68.1875 C-184.65080468 66.53364767 -183.31866272 64.865798 -182 63.1875 C-179.58175203 61.13565324 -178.03873322 60.20041107 -175 59.1875 C-173.87035267 58.02168693 -172.74135792 56.85523421 -171.61572266 55.68554688 C-168.16146539 52.48286894 -164.11215184 50.02033329 -160.1875 47.4375 C-159.25623291 46.82132813 -158.32496582 46.20515625 -157.36547852 45.5703125 C-129.31629692 27.19284819 -129.31629692 27.19284819 -118.796875 24.65625 C-116.76271158 24.28735791 -116.76271158 24.28735791 -115 22.1875 C-112.375 22.0625 -112.375 22.0625 -110 22.1875 C-110 21.5275 -110 20.8675 -110 20.1875 C-106.49223216 18.58394899 -103.85645121 17.96713136 -100 18.1875 C-100 17.5275 -100 16.8675 -100 16.1875 C-97.62854106 15.34270547 -95.25365876 14.51156717 -92.875 13.6875 C-92.20984375 13.44902344 -91.5446875 13.21054687 -90.859375 12.96484375 C-86.76645945 11.56041194 -83.38868208 10.91406186 -79 11.1875 C-79 10.5275 -79 9.8675 -79 9.1875 C-78.030625 9.249375 -77.06125 9.31125 -76.0625 9.375 C-72.09193497 9.39114051 -68.81300673 8.30169608 -65.11328125 6.94140625 C-63 6.1875 -63 6.1875 -61.04296875 5.71484375 C-58.89226651 5.21657773 -58.89226651 5.21657773 -56.5546875 4.125 C-53.81306989 3.11890179 -52.02187632 3.04310741 -49.125 3.1875 C-43.35386434 3.30385354 -37.8625448 2.59093516 -32.1640625 1.72265625 C-21.486351 0.24476761 -10.76463216 -0.00606496 0 0 Z M-54 4.1875 C-50 5.1875 -50 5.1875 -50 5.1875 Z M51 4.1875 C55 5.1875 55 5.1875 55 5.1875 Z M-48 9.1875 C-48.86278564 9.33245911 -49.72557129 9.47741821 -50.61450195 9.62677002 C-100.81174034 18.18041558 -148.29110966 42.17317386 -186 76.1875 C-186.57121582 76.70231934 -187.14243164 77.21713867 -187.73095703 77.74755859 C-191.52827852 81.18505539 -195.27672467 84.66995821 -199 88.1875 C-199.75023437 88.89519531 -200.50046875 89.60289063 -201.2734375 90.33203125 C-205.77816757 94.70322189 -209.74917322 99.4045241 -213.66796875 104.3046875 C-215.17804583 106.17141595 -216.72082308 108.01234678 -218.30078125 109.8203125 C-233.96651118 127.81923625 -245.56352431 148.82235622 -255.9375 170.1875 C-256.39858154 171.13093262 -256.85966309 172.07436523 -257.3347168 173.04638672 C-259.83598705 178.29733947 -261.84816437 183.45566706 -263.38134766 189.06933594 C-264.09578403 191.51544879 -265.13506135 193.76576784 -266.1796875 196.0859375 C-268.85283785 202.93429411 -270.713705 210.18820395 -271.875 217.4375 C-272.24625 218.675 -272.6175 219.9125 -273 221.1875 C-275.75 222.5 -275.75 222.5 -279 223.1875 C-287.80104187 228.16200193 -294.40732027 235.32187029 -297.578125 244.94140625 C-299.31095378 254.16711501 -299.05385519 264.13243234 -294 272.1875 C-293.52949219 272.97898437 -293.05898438 273.77046875 -292.57421875 274.5859375 C-289.8673396 278.90855072 -287.2873106 282.28726048 -283 285.1875 C-284.08682565 288.44797694 -284.63560501 288.89146989 -287.25 290.875 C-294.25709016 296.77419295 -296.69049847 302.75087186 -297.78125 311.8125 C-298.54996894 323.67273503 -296.51544474 332.32302088 -288.8125 341.4375 C-284.76392494 345.73367386 -280.551938 349.06929072 -275 351.1875 C-274.01 351.1875 -273.02 351.1875 -272 351.1875 C-271.91363281 351.80753906 -271.82726562 352.42757813 -271.73828125 353.06640625 C-269.64467103 366.26191286 -264.55298521 378.76252158 -259.77050781 391.18359375 C-259.25334483 392.52861077 -258.73971641 393.87499176 -258.22949219 395.22265625 C-255.40303521 402.67846906 -252.40499871 409.51707338 -248 416.1875 C-247.36328125 418.39453125 -247.36328125 418.39453125 -247 420.1875 C-246.34 420.1875 -245.68 420.1875 -245 420.1875 C-244.67128906 421.39792969 -244.67128906 421.39792969 -244.3359375 422.6328125 C-242.63019951 427.17147205 -240.23584501 430.99296927 -237.625 435.0625 C-237.09261719 435.89676514 -236.56023437 436.73103027 -236.01171875 437.59057617 C-227.36659969 450.9714406 -217.54553511 463.26808794 -207 475.1875 C-206.18402344 476.115625 -205.36804688 477.04375 -204.52734375 478 C-197.4836854 485.92562587 -190.13553791 493.38155647 -182 500.1875 C-181.51241211 500.5995166 -181.02482422 501.0115332 -180.52246094 501.43603516 C-164.38640036 514.99595377 -146.7354904 526.54882782 -128 536.1875 C-126.80286377 536.8055249 -126.80286377 536.8055249 -125.58154297 537.43603516 C-59.97778996 570.89999147 17.27659329 576.08941019 87.26171875 553.53125 C125.16843405 540.8342899 159.98473908 521.22539632 189.19140625 493.80859375 C191.81436811 491.36073922 194.49001001 488.98997967 197.1875 486.625 C202.18364951 482.13005657 206.61062178 477.26916271 211 472.1875 C211.83015625 471.25679688 212.6603125 470.32609375 213.515625 469.3671875 C235.25612902 445.89181891 235.25612902 445.89181891 247 418.1875 C247.66 418.1875 248.32 418.1875 249 418.1875 C252.49581164 411.51049977 255.64756958 404.91119632 258.04296875 397.7578125 C259 395.1875 259 395.1875 260.48828125 392.26953125 C262.02850511 389.12938494 263.03275635 386.1071415 264 382.75 C265.04909823 379.21429873 266.07281888 375.7848805 267.625 372.4375 C269.05358891 369.0608353 269.80327093 365.88996157 270.47265625 362.30078125 C271 360.1875 271 360.1875 272.05078125 358.08984375 C273.24780325 355.69087374 273.14692454 353.83214168 273 351.1875 C274.27875 350.878125 275.5575 350.56875 276.875 350.25 C285.03454098 347.54304328 291.98402844 340.71744667 296 333.1875 C300.19179272 323.92143189 299.97962697 311.75984491 297 302.1875 C293.63652411 296.15435939 289.63464359 291.22022839 284 287.1875 C283.34 287.1875 282.68 287.1875 282 287.1875 C282 286.5275 282 285.8675 282 285.1875 C282.556875 284.960625 283.11375 284.73375 283.6875 284.5 C290.50032623 280.63326079 295.60558586 273.16885753 298.16015625 265.875 C299.0452112 261.9889913 299.26621765 258.54393305 299.25 254.5625 C299.25773438 252.65597656 299.25773438 252.65597656 299.265625 250.7109375 C299.01209064 247.34787884 298.43615217 245.19928675 297 242.1875 C296.73960937 241.54167969 296.47921875 240.89585937 296.2109375 240.23046875 C292.46649751 231.91921175 287.1818955 226.91269974 278.6875 223.6875 C275.57421875 222.2578125 275.57421875 222.2578125 273 220.1875 C271.29459982 215.56076477 270.78867854 211.06849254 270.27294922 206.18994141 C269.18193945 198.18595026 265.4047943 190.44607246 262 183.1875 C261.1638541 181.37629578 260.33065699 179.56372811 259.5 177.75 C259.07074219 176.81285156 258.64148438 175.87570313 258.19921875 174.91015625 C257.14792239 172.52333683 256.21799503 170.13191145 255.3125 167.6875 C245.47054701 142.90616816 228.96252566 119.3185348 210.66796875 100.03125 C208.60820492 97.83577699 206.63812634 95.61507321 204.6796875 93.33203125 C200.98977716 89.09600418 197.03710714 85.21190284 192.9375 81.375 C192.19653076 80.68067871 191.45556152 79.98635742 190.69213867 79.27099609 C184.09254015 73.15588208 177.22683663 67.539005 170 62.1875 C169.44812012 61.77338867 168.89624023 61.35927734 168.32763672 60.93261719 C146.30099127 44.45917731 122.37454199 31.98711812 96.71386719 22.22265625 C94.49133397 21.37491058 92.27928879 20.50715998 90.0703125 19.625 C79.69099756 15.64252904 68.85814868 13.4426072 58 11.1875 C57.2486377 11.03007324 56.49727539 10.87264648 55.72314453 10.71044922 C38.17238884 7.08081054 21.03129022 5.83623952 3.13647461 5.87182617 C-0.16521506 5.87497872 -3.46599882 5.85146099 -6.76757812 5.82617188 C-20.74741406 5.78491092 -34.21827068 6.85584059 -48 9.1875 Z M-54 567.1875 C-50 568.1875 -50 568.1875 -50 568.1875 Z M51 567.1875 C55 568.1875 55 568.1875 55 568.1875 Z " fill="#E2E2E2" transform="translate(301,15.8125)"/>
<path d="M0 0 C6.88050362 5.56743041 11.49578793 12.92635826 13.796875 21.46875 C14.86590934 34.74143609 13.39266669 45.15273488 5.109375 55.91796875 C-2.21887746 64.00132831 -11.58905979 68.8545297 -22.44921875 69.62890625 C-32.91289984 70.00435815 -41.83799273 66.72856375 -50.203125 60.46875 C-58.73152555 52.29302767 -63.1894296 43.34933027 -63.5612793 31.45849609 C-63.61250914 25.02729464 -63.48949251 19.14858518 -60.203125 13.46875 C-59.78933594 12.73398437 -59.37554687 11.99921875 -58.94921875 11.2421875 C-52.81735644 1.25076064 -44.15457732 -5.33482883 -32.671875 -8.15234375 C-20.56307555 -10.01081455 -9.99588014 -6.94749116 0 0 Z " fill="#020200" transform="translate(326.203125,271.53125)"/>
<path d="M0 0 C0.66 0.33 1.32 0.66 2 1 C0.37843976 5.10108886 -2.5767703 7.83148167 -5.6640625 10.859375 C-6.21613373 11.40861633 -6.76820496 11.95785767 -7.33700562 12.52374268 C-9.09501815 14.27059293 -10.8598689 16.01034601 -12.625 17.75 C-13.8207708 18.93573591 -15.01608865 20.1219288 -16.2109375 21.30859375 C-19.13540253 24.21105085 -22.06601874 27.1071641 -25 30 C-25.99 29.34 -26.98 28.68 -28 28 C-26.58972554 26.53548421 -25.17151204 25.0786107 -23.75 23.625 C-22.96109375 22.81289062 -22.1721875 22.00078125 -21.359375 21.1640625 C-19.22318682 19.20471109 -17.56861033 18.22710939 -15 17 C-13.11561906 15.42950907 -13.11561906 15.42950907 -11.375 13.625 C-10.48941406 12.74714844 -10.48941406 12.74714844 -9.5859375 11.8515625 C-7.98106421 9.9778927 -7.09382937 8.19633993 -6 6 C-4.11083032 3.86611922 -2.06297713 1.97328247 0 0 Z " fill="#DCDCDC" transform="translate(112,85)"/>
<path d="M0 0 C0.99 0.66 1.98 1.32 3 2 C2.43410156 2.77085937 1.86820313 3.54171875 1.28515625 4.3359375 C0.55167969 5.33882813 -0.18179688 6.34171875 -0.9375 7.375 C-2.03384766 8.87160156 -2.03384766 8.87160156 -3.15234375 10.3984375 C-4.9779569 12.82817109 -4.9779569 12.82817109 -6 15 C-6.99 14.67 -7.98 14.34 -9 14 C-6.03 9.38 -3.06 4.76 0 0 Z " fill="#7D7D7D" transform="translate(544,451)"/>
<path d="M0 0 C3.99112081 4.60513939 6.94456259 9.75483244 10 15 C8.23046875 14.83984375 8.23046875 14.83984375 6 14 C4.11328125 11.56640625 4.11328125 11.56640625 2.3125 8.5625 C1.71050781 7.57378906 1.10851563 6.58507812 0.48828125 5.56640625 C-0.38131901 4.06685935 -1.22477803 2.55044394 -2 1 C-1.34 0.67 -0.68 0.34 0 0 Z " fill="#818181" transform="translate(58,451)"/>
<path d="M0 0 C1.76953125 0.16015625 1.76953125 0.16015625 4 1 C5.88671875 3.43359375 5.88671875 3.43359375 7.6875 6.4375 C8.59048828 7.92056641 8.59048828 7.92056641 9.51171875 9.43359375 C10.38131901 10.93314065 11.22477803 12.44955606 12 14 C11.01 14.33 10.02 14.66 9 15 C7.49726004 12.68923915 5.99770448 10.37652089 4.5 8.0625 C4.07074219 7.40314453 3.64148438 6.74378906 3.19921875 6.06445312 C0 1.11328125 0 1.11328125 0 0 Z " fill="#7D7D7D" transform="translate(535,138)"/>
<path d="M0 0 C0.99 0.33 1.98 0.66 3 1 C-1.455 7.93 -1.455 7.93 -6 15 C-6.99 14.34 -7.98 13.68 -9 13 C-8.43410156 12.22914063 -7.86820313 11.45828125 -7.28515625 10.6640625 C-6.55167969 9.66117188 -5.81820312 8.65828125 -5.0625 7.625 C-4.33160156 6.62726563 -3.60070313 5.62953125 -2.84765625 4.6015625 C-1.0220431 2.17182891 -1.0220431 2.17182891 0 0 Z " fill="#808080" transform="translate(65,138)"/>
<path d="M0 0 C0.99 0.66 1.98 1.32 3 2 C0.03 4.97 -2.94 7.94 -6 11 C-6.66 10.34 -7.32 9.68 -8 9 C-7.50628906 8.51789063 -7.01257813 8.03578125 -6.50390625 7.5390625 C-5.86324219 6.90742188 -5.22257812 6.27578125 -4.5625 5.625 C-3.92441406 4.99851562 -3.28632812 4.37203125 -2.62890625 3.7265625 C-0.92117824 2.08276939 -0.92117824 2.08276939 0 0 Z " fill="#828282" transform="translate(516,489)"/>
<path d="M0 0 C3.26008643 3.16952847 6.22237877 6.39937989 9 10 C6 10 6 10 3.95703125 8.25 C3.24933594 7.5075 2.54164062 6.765 1.8125 6 C1.09707031 5.2575 0.38164063 4.515 -0.35546875 3.75 C-0.89816406 3.1725 -1.44085938 2.595 -2 2 C-1.34 1.34 -0.68 0.68 0 0 Z " fill="#858585" transform="translate(86,489)"/>
<path d="M0 0 C0.66 0.66 1.32 1.32 2 2 C-1 5 -4 8 -7 11 C-7.66 10.34 -8.32 9.68 -9 9 C-6.03 6.03 -3.06 3.06 0 0 Z " fill="#858585" transform="translate(93,104)"/>
<path d="M0 0 C3.62613199 0.56959153 5.25517741 1.92374534 7.75 4.5625 C8.36359375 5.20316406 8.9771875 5.84382813 9.609375 6.50390625 C10.06828125 6.99761719 10.5271875 7.49132812 11 8 C10.01 8.66 9.02 9.32 8 10 C6.85157077 8.71064081 5.70633773 7.41843421 4.5625 6.125 C3.92441406 5.40570313 3.28632813 4.68640625 2.62890625 3.9453125 C1 2 1 2 0 0 Z " fill="#7D7D7D" transform="translate(508,105)"/>
<path d="M0 0 C0.66 0.66 1.32 1.32 2 2 C-0.64 4.64 -3.28 7.28 -6 10 C-6.66 9.67 -7.32 9.34 -8 9 C-6.85459775 7.68712379 -5.70866567 6.37470979 -4.5625 5.0625 C-3.92441406 4.33160156 -3.28632813 3.60070312 -2.62890625 2.84765625 C-1.77458541 1.87860647 -0.91348825 0.91348825 0 0 Z " fill="#838383" transform="translate(497,509)"/>
<path d="M0 0 C0.66 0.66 1.32 1.32 2 2 C1.195625 2.226875 0.39125 2.45375 -0.4375 2.6875 C-1.283125 3.120625 -2.12875 3.55375 -3 4 C-3.89386164 6.54775306 -3.89386164 6.54775306 -4 9 C-4.99 9.33 -5.98 9.66 -7 10 C-6.875 6.6875 -6.875 6.6875 -6 3 C-2.9375 1.0625 -2.9375 1.0625 0 0 Z " fill="#878787" transform="translate(584,368)"/>
<path d="M0 0 C4.84455959 1.49740933 4.84455959 1.49740933 7 3 C7.9375 6.6875 7.9375 6.6875 8 10 C7.01 9.67 6.02 9.34 5 9 C4.9071875 7.824375 4.9071875 7.824375 4.8125 6.625 C4.544375 5.75875 4.27625 4.8925 4 4 C1.52363988 2.62533375 1.52363988 2.62533375 -1 2 C-0.67 1.34 -0.34 0.68 0 0 Z " fill="#8A8A8A" transform="translate(18,368)"/>
<path d="M0 0 C0.99 0.66 1.98 1.32 3 2 C0.36 4.64 -2.28 7.28 -5 10 C-5.66 9.67 -6.32 9.34 -7 9 C-4.69 6.03 -2.38 3.06 0 0 Z " fill="#7E7E7E" transform="translate(596,357)"/>
<path d="M0 0 C3.28788824 3.11016455 5.83735988 6.01618925 8 10 C4.78956118 8.61811547 2.95063635 7.07578097 0.75 4.375 C0.22921875 3.74335938 -0.2915625 3.11171875 -0.828125 2.4609375 C-1.21484375 1.97882813 -1.6015625 1.49671875 -2 1 C-1.34 0.67 -0.68 0.34 0 0 Z " fill="#808080" transform="translate(6,357)"/>
<path d="M0 0 C0.99 0.33 1.98 0.66 3 1 C3.061875 1.78375 3.12375 2.5675 3.1875 3.375 C3.455625 4.24125 3.72375 5.1075 4 6 C6.47636012 7.37466625 6.47636012 7.37466625 9 8 C8.34 8.66 7.68 9.32 7 10 C4.0625 8.9375 4.0625 8.9375 1 7 C0.125 3.3125 0.125 3.3125 0 0 Z " fill="#878787" transform="translate(577,226)"/>
<path d="M0 0 C1 3 1 3 0.4375 5 C-1.54997816 7.765187 -3.92353962 8.66240853 -7 10 C-7 9.01 -7 8.02 -7 7 C-5.68 6.67 -4.36 6.34 -3 6 C-2.814375 4.7934375 -2.814375 4.7934375 -2.625 3.5625 C-2.41875 2.716875 -2.2125 1.87125 -2 1 C-1.34 0.67 -0.68 0.34 0 0 Z " fill="#8A8A8A" transform="translate(25,226)"/>
<path d="M0 0 C0.66 0.33 1.32 0.66 2 1 C0.90653119 2.34212062 -0.2001575 3.67347975 -1.3125 5 C-2.23482422 6.11375 -2.23482422 6.11375 -3.17578125 7.25 C-5 9 -5 9 -8 9 C-7.04270084 7.87411986 -6.08412105 6.7493285 -5.125 5.625 C-4.59132813 4.99851562 -4.05765625 4.37203125 -3.5078125 3.7265625 C-2.38567993 2.44163349 -1.20628025 1.20628025 0 0 Z " fill="#858585" transform="translate(112,85)"/>
<path d="M0 0 C3.21043882 1.38188453 5.04936365 2.92421903 7.25 5.625 C8.03117187 6.57246094 8.03117187 6.57246094 8.828125 7.5390625 C9.40820312 8.26222656 9.40820312 8.26222656 10 9 C7 9 7 9 5.17578125 7.28515625 C4.56089844 6.55167969 3.94601562 5.81820312 3.3125 5.0625 C2.68988281 4.33160156 2.06726563 3.60070312 1.42578125 2.84765625 C0 1 0 1 0 0 Z " fill="#838383" transform="translate(489,85)"/>
<path d="M0 0 C0.66 0.99 1.32 1.98 2 3 C0.02 5.31 -1.96 7.62 -4 10 C-4.99 9.67 -5.98 9.34 -7 9 C-4.69 6.03 -2.38 3.06 0 0 Z " fill="#7D7D7D" transform="translate(529,473)"/>
<path d="M0 0 C3.25524265 3.02272532 5.61820737 6.25718301 8 10 C5.46089803 9.61479436 4.27248877 9.29902057 2.515625 7.37109375 C2.09796875 6.73300781 1.6803125 6.09492188 1.25 5.4375 C0.82203125 4.79683594 0.3940625 4.15617187 -0.046875 3.49609375 C-0.51867187 2.75552734 -0.51867187 2.75552734 -1 2 C-0.67 1.34 -0.34 0.68 0 0 Z " fill="#808080" transform="translate(73,473)"/>
<path d="M0 0 C0.66 0.33 1.32 0.66 2 1 C-0.31 3.97 -2.62 6.94 -5 10 C-5.66 9.01 -6.32 8.02 -7 7 C-4.69 4.69 -2.38 2.38 0 0 Z " fill="#808080" transform="translate(12,237)"/>
<path d="M0 0 C4.2742558 1.5830577 6.26531794 4.50568404 9 8 C8.34 8.66 7.68 9.32 7 10 C5.83043409 8.52312468 4.66441854 7.04343707 3.5 5.5625 C2.8503125 4.73878906 2.200625 3.91507813 1.53125 3.06640625 C0 1 0 1 0 0 Z " fill="#7E7E7E" transform="translate(589,237)"/>
<path d="M0 0 C2.53910197 0.38520564 3.72751123 0.70097943 5.484375 2.62890625 C5.90203125 3.26699219 6.3196875 3.90507813 6.75 4.5625 C7.17796875 5.20316406 7.6059375 5.84382813 8.046875 6.50390625 C8.36140625 6.99761719 8.6759375 7.49132812 9 8 C8.34 8.66 7.68 9.32 7 10 C5.83043409 8.52312468 4.66441854 7.04343707 3.5 5.5625 C2.8503125 4.73878906 2.200625 3.91507812 1.53125 3.06640625 C0 1 0 1 0 0 Z " fill="#7D7D7D" transform="translate(522,121)"/>
<path d="M0 0 C0.99 0.33 1.98 0.66 3 1 C0.69 3.97 -1.62 6.94 -4 10 C-4.66 9.01 -5.32 8.02 -6 7 C-4.02 4.69 -2.04 2.38 0 0 Z " fill="#808080" transform="translate(78,121)"/>
<path d="M0 0 C7.59 0 15.18 0 23 0 C23 0.33 23 0.66 23 1 C15.41 1 7.82 1 0 1 C0 0.67 0 0.34 0 0 Z " fill="#FFFFFF" transform="translate(290,589)"/>
<path d="M0 0 C1.15224028 0.92961422 2.29659176 1.8690125 3.4375 2.8125 C4.07558594 3.33457031 4.71367188 3.85664062 5.37109375 4.39453125 C7 6 7 6 8 9 C3.7257442 7.4169423 1.73468206 4.49431596 -1 1 C-0.67 0.67 -0.34 0.34 0 0 Z " fill="#808080" transform="translate(106,510)"/>
<path d="M0 0 C7.59 0 15.18 0 23 0 C23 0.33 23 0.66 23 1 C15.41 1 7.82 1 0 1 C0 0.67 0 0.34 0 0 Z " fill="#FFFFFF" transform="translate(290,14)"/>
<path d="M0 0 C0.99 0.66 1.98 1.32 3 2 C2.01 4.31 1.02 6.62 0 9 C-0.99 9 -1.98 9 -3 9 C-2.01 6.03 -1.02 3.06 0 0 Z " fill="#7D7D7D" transform="translate(565,410)"/>
<path d="M0 0 C0.99 0 1.98 0 3 0 C3.99 2.64 4.98 5.28 6 8 C5.01 8.33 4.02 8.66 3 9 C2.01 6.03 1.02 3.06 0 0 Z " fill="#7D7D7D" transform="translate(562,185)"/>
<path d="M0 0 C0.99 0.66 1.98 1.32 3 2 C2.34 3.98 1.68 5.96 1 8 C0.01 8 -0.98 8 -2 8 C-1.34 5.36 -0.68 2.72 0 0 Z " fill="#7D7D7D" transform="translate(570,397)"/>
<path d="M0 0 C1.9451 2.91765 2.45276317 4.62537285 3 8 C2.01 8 1.02 8 0 8 C-0.66 5.69 -1.32 3.38 -2 1 C-1.34 0.67 -0.68 0.34 0 0 Z " fill="#818181" transform="translate(32,397)"/>
<path d="M0 0 C0.99 0 1.98 0 3 0 C3.33 2.31 3.66 4.62 4 7 C3.01 7.495 3.01 7.495 2 8 C1.34 5.36 0.68 2.72 0 0 Z " fill="#7E7E7E" transform="translate(601,315)"/>
<path d="M0 0 C0.66 0.33 1.32 0.66 2 1 C1.67 3.31 1.34 5.62 1 8 C0.01 8 -0.98 8 -2 8 C-1.34 5.36 -0.68 2.72 0 0 Z " fill="#7E7E7E" transform="translate(603,281)"/>
<path d="M0 0 C0.99 0 1.98 0 3 0 C3.66 2.31 4.32 4.62 5 7 C4.01 7.33 3.02 7.66 2 8 C1.34 5.36 0.68 2.72 0 0 Z " fill="#7D7D7D" transform="translate(568,199)"/>
<path d="M0 0 C0.99 0 1.98 0 3 0 C2.34 2.64 1.68 5.28 1 8 C0.01 7.34 -0.98 6.68 -2 6 C-1.34 4.02 -0.68 2.04 0 0 Z " fill="#818181" transform="translate(32,199)"/>
<path d="M0 0 C0.99 0.66 1.98 1.32 3 2 C1.68 3.65 0.36 5.3 -1 7 C-1.99 6.67 -2.98 6.34 -4 6 C-2.68 4.02 -1.36 2.04 0 0 Z " fill="#7D7D7D" transform="translate(534,466)"/>
<path d="M0 0 C3.875 4.75 3.875 4.75 5 7 C3.1875 6.8125 3.1875 6.8125 1 6 C-0.75 3.4375 -0.75 3.4375 -2 1 C-1.34 0.67 -0.68 0.34 0 0 Z " fill="#808080" transform="translate(68,466)"/>
<path d="M0 0 C0.99 0.66 1.98 1.32 3 2 C1.515 4.475 1.515 4.475 0 7 C-0.99 6.67 -1.98 6.34 -3 6 C-2.01 4.02 -1.02 2.04 0 0 Z " fill="#7D7D7D" transform="translate(551,439)"/>
<path d="M0 0 C1.89213369 2.38573379 3.02391783 4.07175348 4 7 C0.26360784 5.75453595 -0.18756513 4.36595047 -2 1 C-1.34 0.67 -0.68 0.34 0 0 Z " fill="#808080" transform="translate(51,439)"/>
<path d="M0 0 C1.98 1.65 3.96 3.3 6 5 C5.01 5.66 4.02 6.32 3 7 C1.68 5.02 0.36 3.04 -1 1 C-0.67 0.67 -0.34 0.34 0 0 Z " fill="#858585" transform="translate(594,303)"/>
<path d="M0 0 C0.66 0.66 1.32 1.32 2 2 C0.35 3.65 -1.3 5.3 -3 7 C-3.66 6.34 -4.32 5.68 -5 5 C-3.35 3.35 -1.7 1.7 0 0 Z " fill="#888888" transform="translate(8,303)"/>
<path d="M0 0 C3.73639216 1.24546405 4.18756513 2.63404953 6 6 C5.01 6.33 4.02 6.66 3 7 C2.01 4.69 1.02 2.38 0 0 Z " fill="#7D7D7D" transform="translate(548,158)"/>
<path d="M0 0 C0.99 0.33 1.98 0.66 3 1 C2.01 2.98 1.02 4.96 0 7 C-0.99 6.34 -1.98 5.68 -3 5 C-2.01 3.35 -1.02 1.7 0 0 Z " fill="#808080" transform="translate(52,158)"/>
<path d="M0 0 C1.8125 0.1875 1.8125 0.1875 4 1 C5.75 3.5625 5.75 3.5625 7 6 C6.01 6.33 5.02 6.66 4 7 C2.02 3.535 2.02 3.535 0 0 Z " fill="#7D7D7D" transform="translate(530,131)"/>
<path d="M0 0 C0.99 0.33 1.98 0.66 3 1 C1.02 3.97 1.02 3.97 -1 7 C-1.99 6.34 -2.98 5.68 -4 5 C-2.68 3.35 -1.36 1.7 0 0 Z " fill="#808080" transform="translate(70,131)"/>
<path d="M0 0 C3.3 0 6.6 0 10 0 C10 0.33 10 0.66 10 1 C6.7 1 3.4 1 0 1 C0 0.67 0 0.34 0 0 Z " fill="#FFFFFF" transform="translate(318,588)"/>
<path d="M0 0 C3.3 0 6.6 0 10 0 C10 0.33 10 0.66 10 1 C6.7 1 3.4 1 0 1 C0 0.67 0 0.34 0 0 Z " fill="#FFFFFF" transform="translate(275,588)"/>
<path d="M0 0 C3.3 0 6.6 0 10 0 C10 0.33 10 0.66 10 1 C6.7 1 3.4 1 0 1 C0 0.67 0 0.34 0 0 Z " fill="#FFFFFF" transform="translate(318,15)"/>
<path d="M0 0 C3.3 0 6.6 0 10 0 C10 0.33 10 0.66 10 1 C6.7 1 3.4 1 0 1 C0 0.67 0 0.34 0 0 Z " fill="#FFFFFF" transform="translate(275,15)"/>
<path d="M0 0 C3.875 1.75 3.875 1.75 5 4 C1.125 2.25 1.125 2.25 0 0 Z " fill="#7F7F7F" transform="translate(96,503)"/>
<path d="M0 0 C2.31 0 4.62 0 7 0 C7 0.33 7 0.66 7 1 C4.69 1 2.38 1 0 1 C0 0.67 0 0.34 0 0 Z " fill="#FFFFFF" transform="translate(330,587)"/>
<path d="M0 0 C2.31 0 4.62 0 7 0 C7 0.33 7 0.66 7 1 C4.69 1 2.38 1 0 1 C0 0.67 0 0.34 0 0 Z " fill="#FFFFFF" transform="translate(266,587)"/>
<path d="M0 0 C2.31 0 4.62 0 7 0 C7 0.33 7 0.66 7 1 C4.69 1 2.38 1 0 1 C0 0.67 0 0.34 0 0 Z " fill="#FFFFFF" transform="translate(330,16)"/>
<path d="M0 0 C2.31 0 4.62 0 7 0 C7 0.33 7 0.66 7 1 C4.69 1 2.38 1 0 1 C0 0.67 0 0.34 0 0 Z " fill="#FFFFFF" transform="translate(266,16)"/>
<path d="M0 0 C1.98 0 3.96 0 6 0 C6 0.33 6 0.66 6 1 C4.02 1 2.04 1 0 1 C0 0.67 0 0.34 0 0 Z " fill="#EAEAEA" transform="translate(338,586)"/>
<path d="M0 0 C1.98 0 3.96 0 6 0 C6 0.33 6 0.66 6 1 C4.02 1 2.04 1 0 1 C0 0.67 0 0.34 0 0 Z " fill="#E9E9E9" transform="translate(259,586)"/>
<path d="M0 0 C0.66 0.33 1.32 0.66 2 1 C0.02 1.99 0.02 1.99 -2 3 C-1.34 2.01 -0.68 1.02 0 0 Z " fill="#7F7F7F" transform="translate(504,504)"/>
<path d="M0 0 C1.98 0.99 1.98 0.99 4 2 C3.01 2 2.02 2 1 2 C0.67 1.34 0.34 0.68 0 0 Z " fill="#7F7F7F" transform="translate(502,97)"/>
<path d="M0 0 C0.66 0.33 1.32 0.66 2 1 C0.02 1.99 0.02 1.99 -2 3 C-1.34 2.01 -0.68 1.02 0 0 Z " fill="#7F7F7F" transform="translate(99,97)"/>
<path d="M0 0 C1.98 0 3.96 0 6 0 C6 0.33 6 0.66 6 1 C4.02 1 2.04 1 0 1 C0 0.67 0 0.34 0 0 Z " fill="#EAEAEA" transform="translate(338,17)"/>
<path d="M0 0 C1.98 0 3.96 0 6 0 C6 0.33 6 0.66 6 1 C4.02 1 2.04 1 0 1 C0 0.67 0 0.34 0 0 Z " fill="#E9E9E9" transform="translate(259,17)"/>
<path d="M0 0 C4 1 4 1 4 1 Z " fill="#FFFFFF" transform="translate(346,585)"/>
<path d="M0 0 C4 1 4 1 4 1 Z " fill="#FFFFFF" transform="translate(253,585)"/>
<path d="M0 0 C4 1 4 1 4 1 Z " fill="#FFFFFF" transform="translate(346,18)"/>
<path d="M0 0 C4 1 4 1 4 1 Z " fill="#FFFFFF" transform="translate(253,18)"/>
<path d="M0 0 C3 1 3 1 3 1 Z " fill="#D5D5D5" transform="translate(366,581)"/>
<path d="M0 0 C3 1 3 1 3 1 Z " fill="#D3D3D3" transform="translate(234,581)"/>
<path d="M0 0 C3 1 3 1 3 1 Z " fill="#D5D5D5" transform="translate(370,580)"/>
<path d="M0 0 C3 1 3 1 3 1 Z " fill="#D3D3D3" transform="translate(230,580)"/>
<path d="M0 0 C3 1 3 1 3 1 Z " fill="#D5D5D5" transform="translate(374,579)"/>
<path d="M0 0 C3 1 3 1 3 1 Z " fill="#D3D3D3" transform="translate(226,579)"/>
<path d="M0 0 C3 1 3 1 3 1 Z " fill="#AAAAAA" transform="translate(381,577)"/>
<path d="M0 0 C3 1 3 1 3 1 Z " fill="#AAAAAA" transform="translate(219,577)"/>
<path d="M0 0 C3 1 3 1 3 1 Z " fill="#AAAAAA" transform="translate(381,26)"/>
<path d="M0 0 C3 1 3 1 3 1 Z " fill="#AAAAAA" transform="translate(219,26)"/>
<path d="M0 0 C3 1 3 1 3 1 Z " fill="#FFFFFF" transform="translate(374,24)"/>
<path d="M0 0 C3 1 3 1 3 1 Z " fill="#FFFFFF" transform="translate(226,24)"/>
<path d="M0 0 C3 1 3 1 3 1 Z " fill="#D5D5D5" transform="translate(370,23)"/>
<path d="M0 0 C3 1 3 1 3 1 Z " fill="#D3D3D3" transform="translate(230,23)"/>
<path d="M0 0 C3 1 3 1 3 1 Z " fill="#D5D5D5" transform="translate(366,22)"/>
<path d="M0 0 C3 1 3 1 3 1 Z " fill="#D3D3D3" transform="translate(234,22)"/>
<path d="M0 0 C2 1 2 1 2 1 Z " fill="#C1C1C1" transform="translate(402,570)"/>
<path d="M0 0 C2 1 2 1 2 1 Z " fill="#BDBDBD" transform="translate(199,570)"/>
<path d="M0 0 C2 1 2 1 2 1 Z " fill="#C1C1C1" transform="translate(412,566)"/>
<path d="M0 0 C2 1 2 1 2 1 Z " fill="#BDBDBD" transform="translate(189,566)"/>
<path d="M0 0 C2 1 2 1 2 1 Z " fill="#7F7F7F" transform="translate(419,563)"/>
<path d="M0 0 C2 1 2 1 2 1 Z " fill="#7F7F7F" transform="translate(182,563)"/>
<path d="M0 0 C2 1 2 1 2 1 Z " fill="#7F7F7F" transform="translate(419,40)"/>
<path d="M0 0 C2 1 2 1 2 1 Z " fill="#7F7F7F" transform="translate(182,40)"/>
<path d="M0 0 C2 1 2 1 2 1 Z " fill="#C1C1C1" transform="translate(412,37)"/>
<path d="M0 0 C2 1 2 1 2 1 Z " fill="#BDBDBD" transform="translate(189,37)"/>
<path d="M0 0 C2 1 2 1 2 1 Z " fill="#C1C1C1" transform="translate(402,33)"/>
<path d="M0 0 C2 1 2 1 2 1 Z " fill="#BDBDBD" transform="translate(199,33)"/>
<path d="" fill="#FFFFFF" transform="translate(0,0)"/>
<path d="" fill="#FFFFFF" transform="translate(0,0)"/>
<path d="" fill="#FFFFFF" transform="translate(0,0)"/>
<path d="" fill="#FFFFFF" transform="translate(0,0)"/>
<path d="" fill="#FFFFFF" transform="translate(0,0)"/>
<path d="" fill="#FFFFFF" transform="translate(0,0)"/>
<path d="" fill="#FFFFFF" transform="translate(0,0)"/>
<path d="" fill="#FFFFFF" transform="translate(0,0)"/>
<path d="" fill="#FFFFFF" transform="translate(0,0)"/>
<path d="" fill="#FFFFFF" transform="translate(0,0)"/>
<path d="" fill="#FFFFFF" transform="translate(0,0)"/>
</svg>
